<svg id="main" xmlns="http://www.w3.org/2000/svg" viewBox="0 0 128.627 128.627">
  <path d="M112.356 44.277c6.615-1.01 24.48-6.162 11.885-23.412-15.13-20.72-25.48-.622-27.76 3.78-1.49 2.898-6.81 4.454-8.88 1.938-4.94-6.015-9.87-12.205-14.82-18.23-2.064-2.52-5.863-2.926-8.46-.958-5.55 4.193-11.25 8.395-16.807 12.585-2.604 1.965-3.51 6.087-.792 7.888 7.398 4.91 20.34 5.216 14.065 19.58-1.04 2.383-2.73 4.436-4.8 6.094-2.17 1.52-4.61 2.57-7.192 2.903-15.544 2-12.22-10.51-14.865-18.985-.97-3.11-5.18-3.393-7.794-1.445-5.58 4.162-11.21 8.458-16.79 12.615-2.614 1.947-3.28 5.7-1.444 8.395 4.4 6.434 8.96 12.9 13.353 19.33 1.833 2.688-1.15 7.36-4.35 7.99-4.858.942-27.05 5.266-11.395 25.588 13.033 16.916 22.98 1.21 25.798-4.86 1.372-2.967 6.864-5.55 8.873-2.987 4.69 6 9.42 12.117 14.104 18.112 2.008 2.573 5.737 3.022 8.343 1.06 5.12-3.868 10.312-7.663 15.442-11.534 2.603-1.96 3.413-5.81.53-7.34-7.585-4.016-21.95-9.83-12.306-22.508 1.752-2.305 3.483-4.156 5.18-5.664 1.917-1.207 4.182-2.345 6.888-3.386 14.87-5.716 16.435 9.694 18.17 18.107.65 3.193 4.58 3.497 7.196 1.547 5.15-3.846 10.247-7.77 15.396-11.606 2.612-1.955 3.22-5.66 1.313-8.306-4.45-6.18-8.996-12.433-13.446-18.61-1.884-2.645 2.13-7.192 5.36-7.68z"/>
</svg>
