<svg id="main" xmlns="http://www.w3.org/2000/svg" viewBox="0 0 477.065 477.065">
  <path d="M451.612 34.74H25.452C11.4 34.74 0 46.137 0 60.19v269.22c0 14.053 11.4 25.452 25.453 25.452H194.15l-22.72 54.664h-10.42c-9.053 0-16.398 7.345-16.398 16.398s7.345 16.4 16.398 16.4h155.046c9.053 0 16.4-7.347 16.4-16.4s-7.347-16.398-16.4-16.398h-10.42l-22.72-54.664h168.696c14.054 0 25.453-11.4 25.453-25.453V60.193c0-14.054-11.4-25.453-25.453-25.453zm-82.32 303.654c-6.586 0-11.928-5.342-11.928-11.927s5.34-11.927 11.927-11.927c6.584 0 11.928 5.34 11.928 11.927 0 6.585-5.344 11.927-11.927 11.927zm38.76 0c-6.585 0-11.927-5.342-11.927-11.927s5.34-11.927 11.927-11.927c6.583 0 11.927 5.34 11.927 11.927 0 6.585-5.344 11.927-11.928 11.927zm23.59-48c0 6.148-4.985 11.134-11.135 11.134H56.557c-6.15 0-11.135-4.985-11.135-11.135V96.656c0-6.15 4.985-11.135 11.135-11.135h363.95c6.148 0 11.134 4.985 11.134 11.136v193.737z"/>
  <path d="M179.023 195.78h-3.338v-55.24c0-2.94-2.377-5.318-5.31-5.318h-21.308c-1.832 0-3.54.948-4.504 2.51l-35.78 57.59c-1.164 1.855-1.77 3.998-1.77 6.188v7.065c0 2.944 2.376 5.32 5.31 5.32h40.47v13.19c0 6.322 5.125 11.446 11.445 11.446s11.446-5.123 11.446-11.444v-13.192h3.338c5 0 9.053-4.053 9.053-9.06 0-5.002-4.05-9.055-9.052-9.055zm-26.23-22.89v22.89h-23.2v-.32l13.822-22.57c3.494-6.516 6.195-12.557 9.535-19.227h.636c-.482 6.67-.792 13.03-.792 19.226zM236.125 133.476c-26.71 0-39.43 23.68-39.43 53.56.173 29.242 11.928 53.243 38.624 53.243 26.382 0 39.257-21.936 39.257-53.88 0-28.287-10.81-52.924-38.452-52.924zm-.17 88.525c-9.366 0-15.095-11.282-14.94-34.965-.155-24 5.886-35.282 14.783-35.282 9.69 0 14.628 12.083 14.628 34.964 0 23.528-5.093 35.284-14.472 35.284zM355.53 195.78h-3.337v-55.24c0-2.94-2.377-5.318-5.31-5.318h-21.308c-1.832 0-3.54.948-4.503 2.51l-35.78 57.59c-1.164 1.855-1.77 3.998-1.77 6.188v7.065c0 2.944 2.376 5.32 5.31 5.32h40.47v13.19c0 6.322 5.125 11.446 11.445 11.446s11.446-5.123 11.446-11.444v-13.192h3.338c5.002 0 9.056-4.053 9.056-9.06 0-5.002-4.054-9.055-9.055-9.055zm-26.228-22.89v22.89h-23.2v-.32l13.82-22.57c3.495-6.516 6.196-12.557 9.536-19.227h.636c-.482 6.67-.792 13.03-.792 19.226z"/>
</svg>
