<svg xmlns="http://www.w3.org/2000/svg" width="20" height="20" version="1" viewBox="0 0 300 300">
  <path d="M133 .7C95.8 5.7 60.9 26.1 38.8 56 28.4 70.1 20 87.2 16.4 101.5c-.9 3.3-2 7.7-2.5 9.7-3.4 13.7-2.6 44.7 1.6 60.6 3.6 13.5 3.8 12.6-2 13.2-5.7.7-8.9 2.4-10.4 5.7-3 6.5-.9 9.5 12.3 18 5.5 3.6 15.2 9.9 21.4 14 13.9 9.1 15.2 9.7 19.5 8.9 7.1-1.3 7.2-1.6 7.5-32.4.3-30.5 0-32.5-5.3-34.8-5.1-2.1-9.8-.3-13.5 5.1-1.7 2.5-3.5 4.5-3.9 4.5-.5 0-1.9-4.2-3.2-9.3-2.1-7.9-2.4-11.6-2.4-26.2 0-14.7.3-18.3 2.4-26.5 9.8-38.5 36.7-68.6 73.1-81.9 13.1-4.8 22.8-6.3 39-6.3 12.5 0 17.2.4 24.5 2.1 20.9 5.1 34.1 11.7 50.2 25.2 18.2 15.3 31.2 36.4 37.4 60.9 2.1 8.3 2.4 11.7 2.3 27 0 14.8-.4 18.8-2.3 26-3 11.6-7.2 21.9-13.1 32.1-5.6 9.8-6.4 14.8-3 19.1 4.2 5.4 12.7 6.1 17.1 1.5 7.6-8 17.6-29.8 21.9-48.1 3.7-15.5 4.3-45.7 1.1-58.4-.5-2-1.6-6.4-2.5-9.7-2.1-8.4-7.9-22.4-12.8-30.9C250.7 35.7 218.6 12 179 2.9c-7.3-1.6-13.4-2.2-26-2.4-9.1-.2-18.1-.1-20 .2z"/>
  <path d="M143 83.1c-18.5 2.2-33.3 14.2-39.7 32.2-2.2 6.2-2.6 8.9-2.6 19.7 0 10.7.4 13.8 2.7 22 4 13.8 10.6 26.2 18.9 35.7 2.8 3.2 3.2 4.3 3.2 10.1 0 6.2-.1 6.5-3.7 9.6-2 1.7-6.5 4.2-10 5.5-24 8.9-46.7 24.6-52.1 36.1-2.8 5.8-3 16.8-.5 22.1 7.5 15.5 37 23 91.3 23 53.6-.1 82.8-7.5 90.3-23 2.5-5.3 2.3-16.3-.5-22.1-5.7-12.1-26.2-26.1-52.5-36-11.8-4.5-13.3-6.2-13.2-15 0-6.1.4-7.2 3.1-10.3 8.3-9.4 14.8-21.8 18.9-35.7 2.4-8.2 2.8-11.2 2.8-22 0-10.9-.4-13.4-2.6-19.6-3.4-9.4-6.4-13.9-13.4-20.3-10.5-9.7-24.6-13.8-40.4-12z"/>
</svg>
