<svg id="main" xmlns="http://www.w3.org/2000/svg" viewBox="0 0 433 385">
  <path d="M72.06 9.94c-.02-4.1 2.8-8.3 7.03-8.9 5.5-.8 11.2-.82 16.8 0 6.3.86 9.2 9.35 5.4 14.23-2.3 3.48-6.7 3.88-10.4 4.22-.4 3.9-.9 8.6-4.8 10.7-5 3.3-12.6.4-13.8-5.5-.8-4.9-.5-9.9-.4-14.9zM135.4 1.4c6.73-1.57 13.73-.5 20.6-.84 4.6.08 10.52-.5 13.35 4 3.76 5.03.77 13.26-5.5 14.3-6.25.76-12.57.1-18.85.37-4.42-.05-9.8.58-12.98-3.22-4.14-4.3-2.36-12.5 3.37-14.6zm67.98-.02C208.8.02 214.48.78 220 .6c4.5.1 9.17-.45 13.55.85 5.5 2.18 7.23 10 3.3 14.38-3.57 4.47-9.85 3.22-14.85 3.4-6.17-.35-12.5.7-18.55-.76-7.42-2.55-7.57-14.56-.07-17.1zm68.02.02C276.46.06 281.8.74 287 .6c4.58.06 9.24-.36 13.77.6 5.48 1.52 7.97 8.77 4.9 13.5-1.84 3.43-5.93 4.67-9.6 4.5-7.35-.1-14.7.26-22.03-.17-3.9-.2-7.36-3.3-8.1-7.13-1-4.2 1.34-9 5.45-10.5zm68-.02c6.74-1.53 13.74-.47 20.6-.8 4.42.13 10-.57 12.97 3.5 4.28 4.9 1.33 13.67-5.14 14.78-6.24.8-12.56.08-18.83.35-4.42 0-9.83.7-12.98-3.1-4.22-4.4-2.4-12.6 3.37-14.6zm68 .02c4.43-1.15 9.1-1 13.64-.85 3.7.14 8.2.6 10.16 4.26 1.72 4.2 1.2 8.9 1.32 13.2-.3 3.9.35 8.7-3.1 11.4-3.67 3.2-9.8 2.8-12.96-.9-2.3-2.4-2.3-5.9-2.7-9-3.42-.3-7.4-.4-9.75-3.3-4.1-4.4-2.4-12.6 3.4-14.6zM78.44 62.44c4.74-1.68 10.54 1.28 11.74 6.2.86 4.4.32 8.92.44 13.36-.2 5.44.5 10.96-.43 16.35-1.4 6.42-10.3 8.9-15 4.45-3.3-2.58-3.4-7-3.3-10.76.1-7.03-.2-14.07.1-21.1 0-3.82 2.7-7.4 6.3-8.5zm336.16 6c1.3-5.2 7.8-7.93 12.54-5.68 2.86 1.23 4.46 4.07 5.86 6.7V97.6c-1.55 3.07-3.68 6.4-7.3 7.18-4.85 1.37-10.55-1.9-11.28-7-.74-5.23-.23-10.52-.36-15.77.1-4.5-.4-9.1.55-13.5zm-59.6.36c2.94-.6 6.52-1.14 8.83 1.3 2.24 1.93 2.2 5.1 1.85 7.8-3 24.2-6.07 48.4-8.95 72.6-.42 3.04-1 6.8-4.2 8.14-2.86 1.5-6.24.36-8.4-1.8-7.63-7.06-15.15-14.25-22.83-21.25-17.46 18.7-35 37.5-52.48 56.2-5.05 5.7-14.8 5.8-19.97.2-5.15-5.1-5.07-14.1.05-19.2l52.4-56.1c-7.07-6.7-14.17-13.4-21.32-19.9-2.2-2.1-4.85-4.6-4.3-8 .25-3.36 3.23-5.64 6.38-6.08C306.36 78 330.7 73.4 355 68.52zM77.42 136.33c5.23-2.63 12.4.97 12.96 6.9.57 8.26.1 16.57.24 24.84.28 4.1-1.82 8.46-5.86 9.9-5.48 2.37-12.5-1.87-12.63-7.9-.32-8.06-.1-16.13-.13-24.18-.16-3.9 1.68-8.1 5.42-9.6zm337.28 5.3c1.52-5.13 8.12-7.67 12.77-5.2 2.3 1.42 3.86 3.73 5.53 5.83v29.67c-1.7 2.03-3.26 4.27-5.52 5.7-4.94 2.74-12.02-.48-13-6.1-.86-5.46-.27-11.02-.42-16.52.1-4.4-.45-9 .65-13.3zM13.44 201.66c4.5-.65 9.04-.27 13.56-.34 66.02 0 132.05.02 198.08 0 3.95-.06 8.07.78 11.18 3.36 4.02 3.1 5.97 8.23 5.84 13.22-.02 46.03 0 92.06 0 138.08-.04 4.96.24 9.92-.23 14.86-.72 6.6-6.3 12.38-12.93 13.15-6.28.8-12.63.2-18.94.3-61 0-122-.1-183 0-6.7-.2-14.35 1.1-20.04-3.3-4.44-3.2-6.28-8.7-6.16-14 .02-45.7 0-91.4 0-137.1.05-5.8-.6-11.8.7-17.5 1.45-5.5 6.3-10 11.9-10.9zm401 14.56c.82-5.3 7.02-8.6 11.95-6.76 3.2 1.02 5.1 4.13 6.6 7v28.13c-1.4 2.5-3 5.3-5.8 6.6-4.6 2.2-10.8-.1-12.5-4.9-1.1-3.7-.7-7.6-.8-11.4.2-6.3-.5-12.6.4-18.8z"/>
  <path d="M31.97 232.32c59.68.06 119.35.04 179.03 0 .15 40.33.02 80.64.07 120.95-59.73-.03-119.46-.03-179.2 0 .1-40.32-.08-80.63.1-120.95z"/>
  <path d="M416.96 285c4.43-4.68 14.02-2.53 15.02 4.13.78 6.15.87 12.48-.18 18.6-1.32 5.06-7.3 6.1-11.8 5.83-4.65-.26-9.8.87-14.03-1.55-4.96-2.9-5.76-10.6-1.47-14.5 2.4-2.5 6.07-2.5 9.27-2.8.36-3.3.47-7.2 3.2-9.6zm-144.64 10.33c6.16-.96 12.45-.24 18.67-.5 4.8.1 11.1-.8 14.2 3.9 4.1 5.23.5 14.07-6.3 14.57-8 .47-16.1.22-24.1.13-4.7.1-9-3.8-9.2-8.47-.4-4.22 2.4-8.58 6.5-9.63zm68 0c6.5-1.05 13.13-.2 19.7-.47 4.57-.03 10.35-.54 13.2 3.9 4.14 5.2.54 14.1-6.2 14.56-8 .4-16.06.23-24.07.12-4.68.07-9.02-3.8-9.2-8.53-.4-4.2 2.43-8.5 6.57-9.5z"/>
</svg>