<svg id="main" xmlns="http://www.w3.org/2000/svg" viewBox="0 0 486.733 486.733">
  <path d="M403.88 196.563h-9.484v-44.388c0-82.1-65.15-150.68-146.582-152.145-2.225-.04-6.67-.04-8.895 0C157.485 1.494 92.335 70.076 92.335 152.175v44.388H82.85c-14.615 0-26.537 15.082-26.537 33.71v222.63c0 18.607 11.922 33.83 26.54 33.83H403.88c14.616 0 26.54-15.223 26.54-33.83v-222.63c0-18.627-11.923-33.71-26.54-33.71zm-130.438 144.8v67.27c0 7.703-6.45 14.222-14.158 14.222H227.45c-7.71 0-14.16-6.52-14.16-14.222v-67.27c-7.476-7.36-11.83-17.538-11.83-28.796 0-21.334 16.492-39.666 37.46-40.513 2.222-.09 6.673-.09 8.895 0 20.968.847 37.46 19.18 37.46 40.513-.003 11.258-4.356 21.435-11.833 28.795zm58.444-144.8h-177.04v-44.388c0-48.905 39.744-89.342 88.52-89.342 48.774 0 88.52 40.437 88.52 89.342v44.388z"/>
</svg>
