<svg id="main" xmlns="http://www.w3.org/2000/svg" viewBox="0 0 94.504 94.504">
  <path d="M93.918 45.833l-24.12-24.12c-.75-.75-2.076-.75-2.826 0l-5.23 5.23c-.78.78-.78 2.047 0 2.828L79.22 47.247 61.744 64.724c-.78.78-.78 2.047 0 2.828l5.23 5.23c.374.374.883.586 1.413.586s1.04-.212 1.414-.587L93.92 48.664c.78-.782.78-2.05 0-2.83zM32.76 64.724L15.284 47.248l17.477-17.475c.375-.375.586-.883.586-1.414 0-.53-.21-1.04-.586-1.415l-5.23-5.23c-.374-.374-.883-.585-1.413-.585s-1.04.21-1.415.586L.585 45.833c-.78.78-.78 2.047 0 2.83l24.12 24.117c.374.375.883.587 1.413.587s1.04-.212 1.414-.587l5.23-5.23c.78-.78.78-2.045-.003-2.826zM60.967 13.6c-.254-.466-.682-.812-1.19-.962l-4.24-1.25c-1.057-.315-2.17.292-2.483 1.35l-19.68 66.644c-.15.51-.09 1.056.162 1.52.253.468.682.813 1.19.964l4.24 1.25c.188.057.38.084.566.084.863 0 1.66-.564 1.917-1.435L61.127 15.12c.15-.508.093-1.055-.16-1.52z"/>
</svg>
