<svg fill="#fff" xmlns="http://www.w3.org/2000/svg" width="41.333" height="62.667" viewBox="0 0 41.333 62.667">
  <path d="M36.062 23.905H33l1.822-6.968c1.61-6.15-2.083-12.474-8.244-14.083l-6.224-1.636C14.194-.392 7.87 3.308 6.26 9.463l2.657.693c1.223-4.693 6.047-7.51 10.733-6.28l6.235 1.628c4.693 1.224 7.516 6.047 6.286 10.74l-2 7.66H4.12c-2.28 0-4.12 1.846-4.12 4.11v29.21c0 2.265 1.844 4.11 4.115 4.11h31.947c2.265 0 4.11-1.845 4.11-4.11V28.02c0-2.27-1.845-4.115-4.11-4.115zm1.37 33.317c0 .76-.616 1.37-1.37 1.37H4.114c-.755 0-1.37-.61-1.37-1.37V28.02c0-.76.615-1.37 1.37-1.37H36.06c.75 0 1.365.61 1.365 1.37v29.202z"/>
  <path d="M20.082 36.634c-2.847 0-5.165 2.318-5.165 5.167 0 1.76.9 3.38 2.38 4.33v5.77c0 1.54 1.25 2.79 2.785 2.79 1.537 0 2.792-1.25 2.792-2.784V46.14c1.48-.954 2.38-2.574 2.38-4.334 0-2.847-2.317-5.165-5.172-5.165zm1.78 8.505l-.363.19v6.57c0 .78-.63 1.41-1.42 1.41-.78 0-1.42-.636-1.42-1.418V45.32l-.36-.187c-1.245-.672-2.02-1.948-2.02-3.34 0-2.092 1.702-3.796 3.795-3.796 2.1 0 3.803 1.704 3.803 3.797 0 1.39-.77 2.667-2.02 3.34z"/>
</svg>