<svg fill="#fff" xmlns="http://www.w3.org/2000/svg" width="48" height="62.667" viewBox="0 0 48 62.667">
  <path d="M43.884 35.772l-.125-.146c-.6-.74-1.9-1.78-3.78-2.5l-.3-.09c-2.08-.958-3.94-1.576-4.31-1.696-.41-.142-.76-.287-1.04-.412-2.17-1.063-2.45-1.688-2.49-1.828l-.12-.255.1-.23c1.62-2.015 2.76-4.37 3.19-6.6l.07-.155c.44-.562.73-1.23.84-1.956.51-1.86.53-3.225.08-4.178l-.06-.098.02-.115c.58-2.406 1.13-6.913-1.63-10.053-.44-.54-2.12-2.41-5.42-3.38l-1.606-.55c-2.67-.82-4.33-1-4.55-1-.176 0-.327.017-.55.074L22 .637c-.85-.14-1.895.247-2.18.356-.927.385-5.626 2.562-7.115 7.166-.244.65-.75 2.64-.094 7l.02.13-.08.11c-.67.89-.72 2.34-.16 4.3.15.86.43 1.56.85 2.09l.07.15c.41 2.27 1.42 4.53 2.93 6.51l.14.19-.13.19c-.06.1-.11.194-.12.26-.37 1.07-4.55 2.93-8.22 4.05-2.64 1-3.79 2.613-3.8 2.63C.48 41.18.02 52.75 0 53.25c.057 3.01 1.427 3.625 1.688 3.713l.23.1c8.035 3.51 19.775 4.192 21.087 4.26l.41.01c.396 0 .792-.02 1.163-.04h.03l.12.01c.105.02.178.03.26.03h.058c.532-.026 13.136-.745 21-4.275.567-.147 1.9-.828 1.953-3.89-.03-.496-.55-12.095-4.12-17.397zm-26.43-5.475l.218-.203.218.21c1.927 1.812 4.058 2.812 5.995 2.812 2.036 0 4.14-.89 6.088-2.563l.163-.136.42.203c.36.333 1.012.802 1.303.95l.4.19-.05.047.15.095c.36.213.75.426 1.2.645.45.203.83.35 1.25.49.08.026 2 .644 4.18 1.66l.39.12c2.08.792 2.96 1.907 2.99 1.948 3.22 4.787 3.77 15.24 3.82 16.412-.03 1.635-.49 2.058-.62 2.14-7.23 3.235-18.157 4.073-20.267 4.208l-.06.005-.064-.016c-.065-.025-.14-.036-.23-.036l-.076.006c-.575.04-1.054.057-1.5.057h-.35c-1.32-.07-13.094-.84-20.64-4.2-.15-.06-.6-.58-.63-2.08.01-.11.39-11.39 3.78-16.42.17-.21 1.087-1.28 2.93-1.98 1.618-.5 5.618-1.83 7.81-3.41.1-.06.198-.16.277-.24.16-.17.497-.53.88-.89zm-3.44-13.847l.078-.085c.297-.213.437-.546.38-.89-.733-4.426-.255-6.27-.088-6.735 1.28-3.926 5.317-5.77 6.11-6.093.166-.068.474-.16.802-.213l.083-.016.66-.035v.036l.14-.02c.13-.02.26-.04.41-.07l.15-.03c.12 0 1.68.19 4.03.91l1.62.55c2.96.87 4.33 2.51 4.58 2.84 2.37 2.69 1.74 6.75 1.15 8.93-.07.25-.02.51.12.72l.13.17c.22.28.29 1.26-.19 3.05-.1.59-.32 1.06-.64 1.38-.12.12-.2.29-.23.47-.81 4.71-5.02 9.97-9.46 9.97-3.78 0-8.09-4.848-8.86-9.97-.03-.19-.11-.356-.24-.498-.32-.33-.53-.816-.66-1.53-.37-1.35-.41-2.43-.118-2.885z"/>
</svg>