<svg xmlns="http://www.w3.org/2000/svg" viewBox="0 0 434.168 434.168" id="main">
  <path d="M332.318 230.196V34.966H40.93v364.236h134.038c9.616 0 17.483 7.867 17.483 17.483s-7.866 17.483-17.482 17.483H23.446c-9.616 0-17.483-7.867-17.483-17.483V17.483C5.963 7.867 13.83 0 23.446 0H349.8c9.616 0 17.483 7.867 17.483 17.483v212.713c0 9.616-7.867 17.483-17.483 17.483s-17.482-7.868-17.482-17.484zm90.04 42.543c-7.286-6.412-18.358-5.83-24.77 1.456l-95.866 106.648-48.08-46.33c-6.992-6.703-18.065-6.412-24.767.582s-6.41 18.066.583 24.768l61.19 58.86c3.206 3.205 7.577 4.954 12.24 4.954h.582c4.662-.29 9.324-2.33 12.238-5.828l107.814-120.052c6.702-7.576 6.12-18.648-1.165-25.06zM268.21 101.985h-157.35c-9.615 0-17.482 7.867-17.482 17.483s7.867 17.482 17.483 17.482h157.35c9.615 0 17.482-7.867 17.482-17.483s-7.867-17.484-17.483-17.484zm17.484 113.64c0-9.615-7.867-17.482-17.483-17.482h-157.35c-9.616 0-17.483 7.867-17.483 17.483s7.867 17.483 17.483 17.483h157.35c9.615 0 17.483-7.867 17.483-17.483zM110.863 291.39c-9.616 0-17.483 7.867-17.483 17.483 0 9.617 7.867 17.484 17.483 17.484h46.622c9.616 0 17.483-7.867 17.483-17.483 0-9.615-7.867-17.482-17.483-17.482h-46.622z"/>
</svg>
